<?xml version="1.0" standalone="no"?><!DOCTYPE svg PUBLIC "-//W3C//DTD SVG 1.1//EN" "http://www.w3.org/Graphics/SVG/1.1/DTD/svg11.dtd"><svg t="1702036282520" class="icon" viewBox="0 0 1024 1024" version="1.1" xmlns="http://www.w3.org/2000/svg" p-id="14220" xmlns:xlink="http://www.w3.org/1999/xlink" width="200" height="200"><path d="M861.035034 65.727865H163.567054A153.532265 153.532265 0 0 0 10.536528 219.410652V627.174286a153.532265 153.532265 0 0 0 153.030526 153.532265h308.820618v97.939537H275.956686a40.139154 40.139154 0 0 0 0 80.278308h473.090107a40.139154 40.139154 0 0 0 0-80.278308h-196.681856V780.706551h308.870792A153.482091 153.482091 0 0 0 1014.015385 627.174286V219.410652a153.482091 153.482091 0 0 0-152.980351-153.682787zM934.238816 627.174286a73.404478 73.404478 0 0 1-73.203782 73.555H163.567054A73.404478 73.404478 0 0 1 90.313097 627.174286V219.410652a73.404478 73.404478 0 0 1 73.253957-73.504826h697.417806a73.404478 73.404478 0 0 1 73.253956 73.504826z" fill="#2c2c2c" p-id="14221"></path></svg>