<?xml version="1.0" standalone="no"?><!DOCTYPE svg PUBLIC "-//W3C//DTD SVG 1.1//EN" "http://www.w3.org/Graphics/SVG/1.1/DTD/svg11.dtd"><svg t="1617905010578" class="icon" viewBox="0 0 1024 1024" version="1.1" xmlns="http://www.w3.org/2000/svg" p-id="11009" xmlns:xlink="http://www.w3.org/1999/xlink" width="200" height="200"><defs><style type="text/css"></style></defs><path d="M421.489778 147.399111v284.444445h-284.444445v-284.444445h284.444445m28.444444-56.888889h-341.333333a28.444444 28.444444 0 0 0-28.444445 28.444445v341.333333a28.444444 28.444444 0 0 0 28.444445 28.444444h341.333333a28.444444 28.444444 0 0 0 28.444445-28.444444v-341.333333a28.444444 28.444444 0 0 0-28.444445-28.444445z" fill="#2B333D" p-id="11010"></path><path d="M513.132812 289.621333m20.113259-20.113259l181.019336-181.019336q20.11326-20.11326 40.226519 0l181.019336 181.019336q20.11326 20.11326 0 40.226519l-181.019336 181.019336q-20.11326 20.11326-40.226519 0l-181.019336-181.019336q-20.11326-20.11326 0-40.226519Z" fill="#FFB300" opacity=".8" p-id="11011"></path><path d="M421.489778 602.510222v284.444445h-284.444445v-284.444445h284.444445m28.444444-56.888889h-341.333333a28.444444 28.444444 0 0 0-28.444445 28.444445v341.333333a28.444444 28.444444 0 0 0 28.444445 28.444445h341.333333a28.444444 28.444444 0 0 0 28.444445-28.444445v-341.333333a28.444444 28.444444 0 0 0-28.444445-28.444445zM876.600889 602.510222v284.444445h-284.444445v-284.444445h284.444445m28.444444-56.888889h-341.333333a28.444444 28.444444 0 0 0-28.444444 28.444445v341.333333a28.444444 28.444444 0 0 0 28.444444 28.444445h341.333333a28.444444 28.444444 0 0 0 28.444445-28.444445v-341.333333a28.444444 28.444444 0 0 0-28.444445-28.444445z" fill="#2B333D" p-id="11012"></path></svg>