<?xml version="1.0" standalone="no"?><!DOCTYPE svg PUBLIC "-//W3C//DTD SVG 1.1//EN" "http://www.w3.org/Graphics/SVG/1.1/DTD/svg11.dtd"><svg t="1618169692838" class="icon" viewBox="0 0 1026 1024" version="1.1" xmlns="http://www.w3.org/2000/svg" p-id="6767" xmlns:xlink="http://www.w3.org/1999/xlink" width="200.390625" height="200"><defs><style type="text/css"></style></defs><path d="M2.564889 261.650772V934.902157a83.455086 83.455086 0 0 0 83.455087 83.455086h856.544788a83.455086 83.455086 0 0 0 83.487147-83.455086V261.650772H2.564889z m281.079809 469.50299L223.209493 670.718557l97.786405-97.786405-97.786405-98.299383 60.403144-60.403144 158.22161 158.22161-158.189549 158.702527z m445.425091 35.299289h-218.111775V680.978115h218.111775v85.474936z m294.89815-554.977927V84.000125A84.000125 84.000125 0 0 0 939.999875 0.032061H83.455086A83.487147 83.487147 0 0 0 0 83.487147V210.962147h1023.967939v0.512977zM895.466984 64.539028a42.961896 42.961896 0 0 1 43.026018 43.026018 42.641285 42.641285 0 0 1-43.026018 42.993957 42.641285 42.641285 0 0 1-43.026018-42.993957 42.641285 42.641285 0 0 1 43.026018-43.026018z m-145.910141 0a42.961896 42.961896 0 0 1 42.993957 43.026018 42.961896 42.961896 0 0 1-42.993957 42.993957c-24.077898 0-43.026018-19.429037-43.026019-42.993957s19.461098-43.026018 43.026019-43.026018z m-145.942203 0c23.564921 0 42.993957 18.94812 42.993958 43.026018 0 23.53286-18.916059 42.993957-42.993958 42.993957s-42.993957-18.94812-42.993957-42.993957a42.961896 42.961896 0 0 1 42.993957-43.026018z" p-id="6768"></path></svg>